# xmcd
#
# Track frame offsets:
#	150
#	14422
#	30745
#	44610
#	64757
#	82500
#	97830
#	113450
#	128075
#	140737
#	155445
#	170645
#	203975
#	225952
#	245900
#	260460
#	275810
#
# Disc length: 3888 seconds
#
# Revision: 0
# Processed by: cddbd v1.4PL0 Copyright (c) Steve Scherf et al.
# Submitted via: dBpowerAMP V4.0
#
DISCID=e50f2e11
DTITLE=Various Artist - And This Time It's For Real CD 2
DYEAR=1900
DGENRE=soul
TTITLE0=Don Covay - It's Better To Have (And Don't Need)
TTITLE1=Paul Kelly - Stealin' In The Name Of The Lord
TTITLE2=Lee Dorsey - Who's Gonna Help Brother Get Further
TTITLE3=Staple Singers - I'll Take You There
TTITLE4=Flamingos - Buffalo Soldier
TTITLE5=Edwin Starr - War
TTITLE6=Freda Payne - Bring The Boys Home
TTITLE7=Jimmy Ruffin - Tell Me What You Want
TTITLE8=Roy C - Got To Get Enough (Of Your Sweet Love Stuff)
TTITLE9=Gene Chandler - Groovy Situation
TTITLE10=Lynn Collins - Think (About It)
TTITLE11=Detroit Spinners - The Rubberband Man
TTITLE12=Dynamic Superiors - Dception
TTITLE13=Robert Palmer - Sneakin' Sally Through The Alley
TTITLE14=Aretha Franklin - Rock Steady
TTITLE15=Wild Tchoupitoulas -- Meet De Boys On The Battlefront
TTITLE16=Pete Wingfield - 18 With A Bullet
EXTD=tim1701
EXTT0=
EXTT1=
EXTT2=
EXTT3=
EXTT4=
EXTT5=
EXTT6=
EXTT7=
EXTT8=
EXTT9=
EXTT10=
EXTT11=
EXTT12=
EXTT13=
EXTT14=
EXTT15=
EXTT16=
PLAYORDER=
